#!OML:ASF \\sashay\E\Suitcase\Project 1\Capture day 1\Session 1\Male1.ASF
:FULLY-SPECIFIED
:DEGREES
721
root 1.04701 17.0018 16.6588 -3.85215 -1.942 3.23683
lowerback 6.40176 1.11684 -3.39833
upperback -0.445428 1.23095 0.111143
thorax -4.12894 0.68628 1.90148
lowerneck -18.7068 -0.537066 -1.30913
upperneck 18.4179 -0.161893 -0.915932
head 8.85434 -0.271349 -0.117765
rclavicle 1.56419e-014 2.38542e-015
rhumerus -25.4606 -34.9453 -69.8033
rradius 19.3692
rwrist -2.68163
rhand -16.7225 25.6688
rfingers 7.12502
rthumb 9.5031 -4.0969
lclavicle 1.56419e-014 2.38542e-015
lhumerus -39.177 13.7677 78.8892
lradius 24.9718
lwrist -10.085
lhand -1.76397 44.5611
lfingers 7.12502
lthumb 23.8998 73.0939
rfemur -2.07849 -0.253226 15.884
rtibia 62.2029
rfoot 2.42179 -8.47299
rtoes 8.89908
lfemur -10.4813 2.38686 -29.0357
ltibia 21.9825
lfoot -12.0509 -6.67755
ltoes -1.34994
722
root 1.06855 16.9937 16.7817 -4.42794 -1.92104 3.29006
lowerback 10.0625 1.05875 -3.73805
upperback -2.52779 0.955616 0.434
thorax -8.42309 0.667619 2.40401
lowerneck -16.6274 -0.483062 -2.11676
upperneck 19.5775 -0.00227566 -0.464602
head 8.87853 -0.211347 0.192517
rclavicle 1.49089e-014 7.15625e-015
rhumerus -29.9151 -34.505 -66.6087
rradius 19.366
rwrist -1.28803
rhand -16.8135 26.0412
rfingers 7.12502
rthumb 9.4153 -3.72853
lclavicle 1.49089e-014 7.15625e-015
lhumerus -42.8287 12.8492 78.7955
lradius 25.639
lwrist -9.20821
lhand -1.81793 44.5875
lfingers 7.12502
lthumb 23.848 73.1271
rfemur -2.99541 -0.375627 15.7412
rtibia 64.5864
rfoot 1.64807 -8.80863
rtoes 14.1472
lfemur -9.29372 3.0147 -29.1446
ltibia 21.7668
lfoot -12.5843 -7.0587
ltoes -4.12909
723
root 1.08552 17.0012 16.9262 -4.78662 -2.49246 3.33724
lowerback 8.33726 1.3188 -3.47401
upperback -0.724292 1.42167 0.293122
thorax -5.53246 0.809395 2.07454
lowerneck -18.5007 -0.480883 -1.68579
upperneck 18.7015 0.0100988 -0.860873
head 8.91547 -0.21347 -0.0147803
rclavicle 1.83255e-014 6.75868e-015
rhumerus -27.072 -35.0914 -68.3564
rradius 18.8626
rwrist -2.04089
rhand -17.3661 25.9175
rfingers 7.12502
rthumb 8.88203 -3.8756
lclavicle 1.83255e-014 6.75868e-015
lhumerus -39.6681 12.5096 79.6836
lradius 25.6578
lwrist -9.04306
lhand -1.94348 44.9268
lfingers 7.12502
lthumb 23.7276 73.4821
rfemur -4.41533 0.161657 15.7796
rtibia 66.7743
rfoot 0.494142 -9.50131
rtoes 12.6035
lfemur -8.32098 3.4868 -29.1321
ltibia 21.6082
lfoot -13.0295 -6.81457
ltoes -2.6443
724
root 1.09906 17.0111 17.0358 -5.11721 -2.38232 3.98508
lowerback 2.93975 1.23745 -3.80974
upperback 4.30416 1.61313 0.00348497
thorax 2.68011 0.695284 2.12645
lowerneck -22.9619 -0.730026 -1.44415
upperneck 15.7374 -0.309881 -1.00617
head 8.67489 -0.35027 -0.153699
rclavicle -9.01985e-015 -7.15625e-015
rhumerus -17.8575 -40.2953 -73.2663
rradius 17.6779
rwrist 0.697946
rhand -17.652 25.8526
rfingers 7.12502
rthumb 8.60614 -3.95204
lclavicle -9.01985e-015 -7.15625e-015
lhumerus -30.7324 13.1106 81.6237
lradius 24.5663
lwrist -9.13096
lhand -2.34526 43.8553
lfingers 7.12502
lthumb 23.3422 72.46
rfemur -5.81484 0.148337 15.0656
rtibia 68.7596
rfoot -0.26025 -10.0883
rtoes 15.1549
lfemur -7.51047 3.59045 -29.8507
ltibia 21.4498
lfoot -12.9527 -7.07739
ltoes -2.98394
725
root 1.0855 17.0154 17.1875 -5.5064 -2.58879 3.96488
lowerback 8.61758 1.39524 -4.51297
upperback 0.165152 1.42292 0.299998
thorax -4.7853 0.809987 2.67133
lowerneck -19.1363 -0.492068 -1.60749
upperneck 18.0096 -0.0346918 -0.802683
head 8.79103 -0.218132 -0.0139419
rclavicle -5.479e-015 8.34896e-015
rhumerus -26.3056 -35.5772 -68.6082
rradius 18.5646
rwrist -1.70912
rhand -17.9973 25.5549
rfingers 7.12502
rthumb 8.27297 -4.26316
lclavicle -5.479e-015 8.34896e-015
lhumerus -38.0624 10.6814 81.0003
lradius 26.4226
lwrist -7.60364
lhand -2.27155 44.1448
lfingers 7.12502
lthumb 23.4129 72.7405
rfemur -6.99908 0.452606 15.4335
rtibia 70.5222
rfoot -1.0712 -10.9607
rtoes 15.4588
lfemur -6.30498 4.16924 -29.681
ltibia 20.9427
lfoot -12.4754 -7.70573
ltoes 2.37969
726
root 1.11046 17.0143 17.3033 -5.39206 -2.25384 4.42425
lowerback 11.2509 1.19065 -5.21749
upperback -1.81324 0.881481 0.41508
thorax -8.36321 0.690026 3.22695
lowerneck -17.6444 -0.168532 -1.57373
upperneck 19.221 0.454101 -1.11235
head 8.93951 -0.0274067 -0.0614957
rclavicle -2.5842e-015 -4.37326e-015
rhumerus -29.7125 -32.9332 -66.8848
rradius 18.7114
rwrist -2.36212
rhand -18.3557 25.5252
rfingers 7.12502
rthumb 7.927 -4.30612
lclavicle -2.5842e-015 -4.37326e-015
lhumerus -41.475 10.0259 80.8941
lradius 27.6055
lwrist -7.24444
lhand -1.93337 44.111
lfingers 7.12502
lthumb 23.7373 72.665
rfemur -8.75148 -0.140145 14.749
rtibia 72.1213
rfoot -1.5174 -10.6969
rtoes 11.9241
lfemur -5.63943 3.85073 -30.3361
ltibia 20.337
lfoot -11.6695 -8.08832
ltoes 2.73712
727
root 1.12767 17.008 17.4254 -5.38923 -2.00926 5.66291
lowerback 9.79614 1.27589 -6.18419
upperback -0.515627 0.969569 -0.0677669
thorax -6.15894 0.674161 3.26716
lowerneck -18.6623 -0.364384 -1.42681
upperneck 18.1385 0.15154 -1.12643
head 8.75099 -0.15355 -0.128915
rclavicle -9.44227e-015 -3.97569e-015
rhumerus -27.7329 -34.2717 -67.8424
rradius 18.4606
rwrist -2.45667
rhand -18.3403 25.2737
rfingers 7.12502
rthumb 7.94193 -4.55714
lclavicle -9.44227e-015 -3.97569e-015
lhumerus -38.9931 8.99096 81.6507
lradius 28.0499
lwrist -6.71667
lhand -1.61635 44.4937
lfingers 7.12502
lthumb 24.0413 73.0079
rfemur -10.4194 -0.405099 13.1325
rtibia 73.6432
rfoot -2.28601 -10.8113
rtoes 14.9298
lfemur -4.92726 4.26561 -31.7795
ltibia 19.8322
lfoot -11.0653 -8.87292
ltoes 9.54281
